<mxfile host="app.diagrams.net" modified="2023-04-14T07:31:59.765Z" agent="Mozilla/5.0 (Windows NT 10.0; Win64; x64) AppleWebKit/537.36 (KHTML, like Gecko) Chrome/112.0.0.0 Safari/537.36 Edg/112.0.1722.39" etag="iPfgzy7u0GhK9MNuryIJ" version="21.1.7" type="github">
  <diagram name="Page-1" id="YPntTSr8ZNqFE-mm75Fx">
    <mxGraphModel dx="2476" dy="938" grid="1" gridSize="10" guides="1" tooltips="1" connect="1" arrows="1" fold="1" page="1" pageScale="1" pageWidth="850" pageHeight="1100" math="0" shadow="0">
      <root>
        <mxCell id="0" />
        <mxCell id="1" parent="0" />
        <mxCell id="99zHLcygiuPHGJLUHT96-150" value="" style="whiteSpace=wrap;html=1;shape=mxgraph.basic.pentagon" vertex="1" parent="1">
          <mxGeometry x="-770" y="90" width="377.78" height="340" as="geometry" />
        </mxCell>
        <mxCell id="99zHLcygiuPHGJLUHT96-151" value="" style="shape=hexagon;perimeter=hexagonPerimeter2;whiteSpace=wrap;html=1;fixedSize=1;" vertex="1" parent="1">
          <mxGeometry x="-770" y="670" width="375" height="250" as="geometry" />
        </mxCell>
      </root>
    </mxGraphModel>
  </diagram>
</mxfile>
